<svg width="64" height="64" viewBox="0 0 64 64" fill="none" xmlns="http://www.w3.org/2000/svg">
<rect width="64" height="64" rx="8" fill="#1B0D07"/>
<path d="M21.4219 38.25L26.7812 20.25H32L24.0781 43H20.6406L21.4219 38.25ZM16.4844 20.25L21.8281 38.25L22.6406 43H19.1719L11.2969 20.25H16.4844ZM47.0938 35.4531H51.7656C51.6719 36.9844 51.25 38.3438 50.5 39.5312C49.7604 40.7188 48.724 41.6458 47.3906 42.3125C46.0677 42.9792 44.474 43.3125 42.6094 43.3125C41.151 43.3125 39.8438 43.0625 38.6875 42.5625C37.5312 42.0521 36.5417 41.3229 35.7188 40.375C34.9062 39.4271 34.2865 38.2812 33.8594 36.9375C33.4323 35.5938 33.2188 34.0885 33.2188 32.4219V30.8438C33.2188 29.1771 33.4375 27.6719 33.875 26.3281C34.3229 24.974 34.9583 23.8229 35.7812 22.875C36.6146 21.9271 37.6094 21.1979 38.7656 20.6875C39.9219 20.1771 41.2135 19.9219 42.6406 19.9219C44.5365 19.9219 46.1354 20.2656 47.4375 20.9531C48.75 21.6406 49.7656 22.5885 50.4844 23.7969C51.2135 25.0052 51.651 26.3802 51.7969 27.9219H47.1094C47.0573 27.0052 46.875 26.2292 46.5625 25.5938C46.25 24.9479 45.776 24.4635 45.1406 24.1406C44.5156 23.8073 43.6823 23.6406 42.6406 23.6406C41.8594 23.6406 41.1771 23.7865 40.5938 24.0781C40.0104 24.3698 39.5208 24.8125 39.125 25.4062C38.7292 26 38.4323 26.75 38.2344 27.6562C38.0469 28.5521 37.9531 29.6042 37.9531 30.8125V32.4219C37.9531 33.599 38.0417 34.6354 38.2188 35.5312C38.3958 36.4167 38.6667 37.1667 39.0312 37.7812C39.4062 38.3854 39.8854 38.8438 40.4688 39.1562C41.0625 39.4583 41.776 39.6094 42.6094 39.6094C43.5885 39.6094 44.3958 39.4531 45.0312 39.1406C45.6667 38.8281 46.151 38.3646 46.4844 37.75C46.8281 37.1354 47.0312 36.3698 47.0938 35.4531Z" fill="white"/>
</svg>
