<svg width="38" height="38" viewBox="0 0 38 38" fill="none" xmlns="http://www.w3.org/2000/svg">
<path d="M20.5833 4.75004C26.7267 4.75004 31.6667 9.72171 31.6667 15.8334C31.6667 20.2667 29.0858 24.0509 25.3333 25.8242V33.25H14.25V28.5H12.6667C10.9092 28.5 9.50001 27.0909 9.50001 25.3334V20.5834H7.12501C6.46001 20.5834 6.08001 19.7917 6.46001 19.3009L9.50001 15.295C9.63951 12.4503 10.8684 9.76825 12.9318 7.805C14.9953 5.84175 17.7351 4.74784 20.5833 4.75004ZM20.5833 1.58337C13.3158 1.58337 7.29918 6.99837 6.42835 14.0917L3.95835 17.4167H3.91085L3.87918 17.4642C3.00835 18.6675 2.89751 20.2509 3.57835 21.565C4.14835 22.6575 5.16168 23.4175 6.33335 23.655V25.3334C6.33335 28.2625 8.36001 30.7484 11.0833 31.4609V36.4167H28.5V27.7084C32.4583 25.0642 34.8333 20.6784 34.8333 15.8334C34.8333 7.96421 28.4367 1.58337 20.5833 1.58337ZM27.4392 14.725L24.3358 15.5325L26.6158 17.8442C27.17 18.3825 27.17 19.3009 26.6158 19.855C26.0617 20.4092 25.1433 20.4092 24.605 19.855L22.3092 17.575L21.4858 20.6784C21.2958 21.4542 20.52 21.8817 19.7917 21.6917C19.6073 21.6455 19.4339 21.5633 19.2815 21.4498C19.129 21.3363 19.0005 21.1938 18.9034 21.0304C18.8063 20.8671 18.7424 20.6861 18.7155 20.498C18.6886 20.3098 18.6992 20.1182 18.7467 19.9342L19.5858 16.8309L16.4825 17.67C16.2985 17.7175 16.1069 17.7281 15.9187 17.7012C15.7306 17.6743 15.5496 17.6105 15.3863 17.5133C15.2229 17.4162 15.0804 17.2877 14.9669 17.1352C14.8534 16.9828 14.7712 16.8094 14.725 16.625C14.535 15.9125 14.9783 15.1209 15.7383 14.9309L18.8417 14.1075L16.5617 11.8117C16.3235 11.5396 16.1976 11.1872 16.2096 10.8258C16.2216 10.4644 16.3705 10.1211 16.6262 9.86537C16.8819 9.60968 17.2252 9.46076 17.5866 9.44878C17.948 9.4368 18.3005 9.56267 18.5725 9.80087L20.8842 12.0809L21.6917 8.97754C21.8817 8.20171 22.6733 7.75837 23.4175 7.96421C24.1933 8.17004 24.6367 8.94587 24.4308 9.70587L23.5917 12.825L26.7108 11.9859C27.4708 11.78 28.2467 12.2234 28.4525 12.9992C28.6583 13.7434 28.215 14.535 27.4392 14.725Z" fill="#1B0D07"/>
</svg>
