<svg width="38" height="38" viewBox="0 0 38 38" fill="none" xmlns="http://www.w3.org/2000/svg">
<path d="M10.6875 8.3125C6.76875 8.3125 3.5625 11.5187 3.5625 15.4375C3.5625 17.7935 4.72269 19.8906 6.49444 21.1897C3.363 22.743 1.1875 25.9635 1.1875 29.6875H3.5625C3.5625 25.7402 6.74025 22.5625 10.6875 22.5625C14.6347 22.5625 17.8125 25.7402 17.8125 29.6875H20.1875C20.1875 25.7402 23.3652 22.5625 27.3125 22.5625C31.2598 22.5625 34.4375 25.7402 34.4375 29.6875H36.8125C36.8125 25.9623 34.637 22.743 31.5056 21.1897C32.4122 20.5291 33.1503 19.6639 33.6597 18.6644C34.1691 17.6649 34.4356 16.5593 34.4375 15.4375C34.4375 11.5187 31.2313 8.3125 27.3125 8.3125C23.3937 8.3125 20.1875 11.5187 20.1875 15.4375C20.1875 17.7935 21.3477 19.8906 23.1194 21.1897C21.3844 22.0428 19.9483 23.4011 19 25.0859C18.0517 23.4011 16.6156 22.0428 14.8806 21.1897C15.7872 20.5291 16.5253 19.6639 17.0347 18.6644C17.5441 17.6649 17.8106 16.5593 17.8125 15.4375C17.8125 11.5187 14.6062 8.3125 10.6875 8.3125ZM10.6875 10.6875C13.3273 10.6875 15.4375 12.7977 15.4375 15.4375C15.4375 18.0773 13.3273 20.1875 10.6875 20.1875C8.04769 20.1875 5.9375 18.0773 5.9375 15.4375C5.9375 12.7977 8.04769 10.6875 10.6875 10.6875ZM27.3125 10.6875C29.9523 10.6875 32.0625 12.7977 32.0625 15.4375C32.0625 18.0773 29.9523 20.1875 27.3125 20.1875C24.6727 20.1875 22.5625 18.0773 22.5625 15.4375C22.5625 12.7977 24.6727 10.6875 27.3125 10.6875Z" fill="#1B0D07"/>
</svg>
