<svg width="38" height="38" viewBox="0 0 38 38" fill="none" xmlns="http://www.w3.org/2000/svg">
<path d="M3.16669 30.9937V6.3333C3.16669 5.46246 3.47702 4.71671 4.09769 4.09605C4.71836 3.47538 5.46358 3.16557 6.33336 3.16663H31.6667C32.5375 3.16663 33.2833 3.47696 33.9039 4.09763C34.5246 4.7183 34.8344 5.46352 34.8334 6.3333V25.3333C34.8334 26.2041 34.523 26.9499 33.9024 27.5705C33.2817 28.1912 32.5365 28.501 31.6667 28.5H9.50002L5.85836 32.1416C5.35697 32.643 4.78275 32.7554 4.13569 32.4789C3.48863 32.2023 3.16563 31.7073 3.16669 30.9937ZM6.33336 27.1937L8.19377 25.3333H31.6667V6.3333H6.33336V27.1937Z" fill="#1B0D07"/>
</svg>
