<svg width="90" height="90" viewBox="0 0 90 90" fill="none" xmlns="http://www.w3.org/2000/svg">
<path d="M76.875 9.375H13.125L18.75 73.125L45 80.625L71.25 73.125L76.875 9.375Z" fill="#0277BD"/>
<path d="M45 15V74.8125L66 68.8125L70.6875 15H45Z" fill="#039BE5"/>
<path d="M62.0625 24.375H45V31.875H54.1875L53.625 39.375H45V46.875H53.25L52.6875 55.3125L45 57.9375V65.8125L59.8125 60.9375L61.125 39.375L62.0625 24.375Z" fill="white"/>
<path d="M45 24.375V31.875H28.3125L27.75 24.375H45ZM36.375 39.375L36.75 46.875H45V39.375H36.375ZM37.125 50.625H29.625L30.1875 60.9375L45 65.8125V57.9375L37.3125 55.3125L37.125 50.625Z" fill="#EEEEEE"/>
</svg>
