<svg width="90" height="90" viewBox="0 0 90 90" fill="none" xmlns="http://www.w3.org/2000/svg">
<path d="M48.75 31.875H33.75C26.5013 31.875 20.625 25.9988 20.625 18.75C20.625 11.5013 26.5013 5.625 33.75 5.625H48.75V31.875Z" fill="#E64A19"/>
<path d="M46.875 58.125H33.75C26.5013 58.125 20.625 52.2488 20.625 45C20.625 37.7513 26.5013 31.875 33.75 31.875H46.875V58.125Z" fill="#7C4DFF"/>
<path d="M33.75 84.375C26.5013 84.375 20.625 78.4988 20.625 71.25C20.625 64.0013 26.5013 58.125 33.75 58.125H46.875V71.25C46.875 78.4988 40.9988 84.375 33.75 84.375Z" fill="#66BB6A"/>
<path d="M60 31.875H46.875V5.625H60C67.2488 5.625 73.125 11.5013 73.125 18.75C73.125 25.9988 67.2488 31.875 60 31.875Z" fill="#FF7043"/>
<path d="M60 58.125C67.2487 58.125 73.125 52.2487 73.125 45C73.125 37.7513 67.2487 31.875 60 31.875C52.7513 31.875 46.875 37.7513 46.875 45C46.875 52.2487 52.7513 58.125 60 58.125Z" fill="#29B6F6"/>
</svg>
