<svg width="90" height="90" viewBox="0 0 90 90" fill="none" xmlns="http://www.w3.org/2000/svg">
<path d="M79.125 41.4375L48.5625 10.875C47.625 9.9375 46.3125 9.375 45 9.375C43.6875 9.375 42.375 9.9375 41.4375 10.875L34.875 17.4375L42.5625 25.125C43.3125 24.75 44.0625 24.5625 45 24.5625C48.1875 24.5625 50.625 27 50.625 30.1875C50.625 31.125 50.4375 31.875 50.0625 32.625L57.5625 40.125C58.3125 39.75 59.0625 39.5625 60 39.5625C63.1875 39.5625 65.625 42 65.625 45.1875C65.625 48.375 63.1875 50.8125 60 50.8125C56.8125 50.8125 54.375 48.375 54.375 45.1875C54.375 44.25 54.5625 43.5 54.9375 42.75L47.4375 35.25C47.25 35.25 47.0625 35.4375 46.875 35.4375V54.9375C49.125 55.6875 50.625 57.75 50.625 60.1875C50.625 63.375 48.1875 65.8125 45 65.8125C41.8125 65.8125 39.375 63.375 39.375 60.1875C39.375 57.75 40.875 55.6875 43.125 54.9375V35.25C40.875 34.5 39.375 32.4375 39.375 30C39.375 29.0625 39.5625 28.3125 39.9375 27.5625L32.25 19.875L10.875 41.4375C9.9375 42.375 9.375 43.6875 9.375 45C9.375 46.3125 9.9375 47.625 10.875 48.5625L41.4375 79.125C42.375 80.0625 43.6875 80.625 45 80.625C46.3125 80.625 47.625 80.0625 48.5625 79.125L79.125 48.5625C80.0625 47.625 80.625 46.3125 80.625 45C80.625 43.6875 80.0625 42.375 79.125 41.4375Z" fill="#F4511E"/>
</svg>
