<svg width="90" height="90" viewBox="0 0 90 90" fill="none" xmlns="http://www.w3.org/2000/svg">
<path d="M76.875 9.375H13.125L18.75 73.125L45 80.625L71.25 73.125L76.875 9.375Z" fill="#E65100"/>
<path d="M45 15V74.8125L66 68.8125L70.6875 15H45Z" fill="#FF6D00"/>
<path d="M45 46.875V39.375H61.125L59.8125 60.9375L45 65.8125V57.9375L52.6875 55.3125L53.25 46.875H45ZM61.6875 31.875L62.25 24.375H45V31.875H61.6875Z" fill="white"/>
<path d="M45 57.9375V65.8125L30.1875 60.9375L29.4375 50.625H36.9375L37.3125 55.3125L45 57.9375ZM35.8125 31.875H45V24.375H27.9375L29.25 46.875H45V39.375H36.375L35.8125 31.875Z" fill="#EEEEEE"/>
</svg>
