<svg width="90" height="90" viewBox="0 0 90 90" fill="none" xmlns="http://www.w3.org/2000/svg">
<path d="M11.25 78.75V11.25H78.75V78.75H11.25Z" fill="#FFD600"/>
<path d="M55.3838 61.7756C56.6813 63.8831 58.0913 65.9025 61.0781 65.9025C63.5869 65.9025 64.9031 64.6556 64.9031 62.9306C64.9031 60.8662 63.5419 60.1331 60.7819 58.9312L59.2688 58.2862C54.9019 56.4338 51.9975 54.1125 51.9975 49.2094C51.9975 44.6906 55.4569 41.2519 60.8625 41.2519C64.7119 41.2519 67.4775 42.585 69.4725 46.0762L64.7588 49.0894C63.7219 47.2369 62.6006 46.5075 60.8625 46.5075C59.0888 46.5075 57.9656 47.6269 57.9656 49.0894C57.9656 50.8969 59.0906 51.6281 61.6875 52.7475L63.2006 53.3925C68.3475 55.5844 71.25 57.8231 71.25 62.8556C71.25 68.2781 66.9675 71.25 61.2188 71.25C55.5956 71.25 52.4025 68.4281 50.625 64.935L55.3838 61.7756ZM33.66 61.9294C34.6088 63.6281 36.0506 64.935 38.1244 64.935C40.1081 64.935 41.25 64.1512 41.25 61.1044V41.25H47.4994V62.0644C47.4994 68.3775 43.8375 71.25 38.49 71.25C33.6581 71.25 30.1706 67.9762 28.7494 64.935L33.66 61.9294Z" fill="white"/>
</svg>
