<svg width="38" height="38" viewBox="0 0 38 38" fill="none" xmlns="http://www.w3.org/2000/svg">
<g clip-path="url(#clip0_29_69)">
<path d="M10.3444 19.8445H27.6555V23.0956H29.3444V18.1556H19.8444V14.7778H18.1555V18.1556H8.65552V23.0956H10.3444V19.8445Z" fill="#1B0D07"/>
<path d="M14.7778 24.2778H4.2222C3.66229 24.2778 3.12532 24.5003 2.72941 24.8962C2.3335 25.2921 2.11108 25.829 2.11108 26.3889V32.7223C2.11108 33.2822 2.3335 33.8191 2.72941 34.2151C3.12532 34.611 3.66229 34.8334 4.2222 34.8334H14.7778C15.3377 34.8334 15.8746 34.611 16.2705 34.2151C16.6664 33.8191 16.8889 33.2822 16.8889 32.7223V26.3889C16.8889 25.829 16.6664 25.2921 16.2705 24.8962C15.8746 24.5003 15.3377 24.2778 14.7778 24.2778ZM4.2222 32.7223V26.3889H14.7778V32.7223H4.2222Z" fill="#1B0D07"/>
<path d="M33.7778 24.2778H23.2222C22.6623 24.2778 22.1253 24.5003 21.7294 24.8962C21.3335 25.2921 21.1111 25.829 21.1111 26.3889V32.7223C21.1111 33.2822 21.3335 33.8191 21.7294 34.2151C22.1253 34.611 22.6623 34.8334 23.2222 34.8334H33.7778C34.3377 34.8334 34.8746 34.611 35.2705 34.2151C35.6664 33.8191 35.8889 33.2822 35.8889 32.7223V26.3889C35.8889 25.829 35.6664 25.2921 35.2705 24.8962C34.8746 24.5003 34.3377 24.2778 33.7778 24.2778ZM23.2222 32.7223V26.3889H33.7778V32.7223H23.2222Z" fill="#1B0D07"/>
<path d="M13.7222 13.7222H24.2778C24.8377 13.7222 25.3746 13.4998 25.7705 13.1039C26.1664 12.7079 26.3889 12.171 26.3889 11.6111V5.27774C26.3889 4.71784 26.1664 4.18087 25.7705 3.78496C25.3746 3.38905 24.8377 3.16663 24.2778 3.16663H13.7222C13.1623 3.16663 12.6253 3.38905 12.2294 3.78496C11.8335 4.18087 11.6111 4.71784 11.6111 5.27774V11.6111C11.6111 12.171 11.8335 12.7079 12.2294 13.1039C12.6253 13.4998 13.1623 13.7222 13.7222 13.7222ZM13.7222 5.27774H24.2778V11.6111H13.7222V5.27774Z" fill="#1B0D07"/>
</g>
<defs>
<clipPath id="clip0_29_69">
<rect width="38" height="38" fill="white"/>
</clipPath>
</defs>
</svg>
