<svg width="90" height="90" viewBox="0 0 90 90" fill="none" xmlns="http://www.w3.org/2000/svg">
<g clip-path="url(#clip0_15_60)">
<path d="M45 69.1875C20.4975 69.1875 0.5625 58.3369 0.5625 45C0.5625 31.6631 20.4975 20.8125 45 20.8125C69.5025 20.8125 89.4375 31.6631 89.4375 45C89.4375 58.3369 69.5025 69.1875 45 69.1875Z" fill="#DCD5F2"/>
<path d="M45 21.375C69.1931 21.375 88.875 31.9736 88.875 45C88.875 58.0264 69.1931 68.625 45 68.625C20.8069 68.625 1.125 58.0264 1.125 45C1.125 31.9736 20.8069 21.375 45 21.375ZM45 20.25C20.1476 20.25 0 31.3313 0 45C0 58.6688 20.1476 69.75 45 69.75C69.8524 69.75 90 58.6688 90 45C90 31.3313 69.8524 20.25 45 20.25Z" fill="#8B75A1"/>
<path d="M28.251 38.25C30.1916 38.25 31.8668 38.9498 32.8455 40.1693C33.6881 41.22 33.9491 42.6116 33.597 44.1934C32.6509 48.4583 30.8194 49.5 24.2663 49.5H19.6088L21.5775 38.25H28.251ZM28.251 36H19.6875L15.75 58.5H18L19.188 51.75H24.2674C30.8633 51.75 34.452 50.7319 35.7941 44.6805C36.9473 39.483 33.1155 36 28.251 36ZM68.751 38.25C70.6916 38.25 72.3668 38.9498 73.3455 40.1693C74.1881 41.22 74.4491 42.6116 74.097 44.1934C73.1509 48.4583 71.3194 49.5 64.7663 49.5H60.1088L62.0775 38.25H68.751ZM68.751 36H60.1875L56.25 58.5H58.5L59.688 51.75H64.7674C71.3633 51.75 74.952 50.7319 76.2941 44.6805C77.4473 39.483 73.6155 36 68.751 36Z" fill="#36404D"/>
<path d="M55.206 37.3635C54.2171 36.3915 52.4745 36 49.8757 36H43.6455L45 29.25H42.6375L38.25 51.75H40.4888L43.1752 38.25H43.6466H49.8769C52.5071 38.25 53.3576 38.7 53.6287 38.9666C54.0146 39.3469 54.1058 40.3459 53.8729 41.625L51.885 51.75H54.2543L56.0835 42.0412C56.4739 39.8947 56.178 38.3198 55.206 37.3635Z" fill="#36404D"/>
</g>
<defs>
<clipPath id="clip0_15_60">
<rect width="90" height="90" fill="white"/>
</clipPath>
</defs>
</svg>
