<svg width="90" height="90" viewBox="0 0 90 90" fill="none" xmlns="http://www.w3.org/2000/svg">
<path d="M45 63.75C20.8125 63.75 1.875 55.5 1.875 45C1.875 34.5 20.8125 26.25 45 26.25C69.1875 26.25 88.125 34.5 88.125 45C88.125 55.5 69.1875 63.75 45 63.75ZM45 30C21.375 30 5.625 37.6875 5.625 45C5.625 52.3125 21.375 60 45 60C68.625 60 84.375 52.3125 84.375 45C84.375 37.6875 68.625 30 45 30Z" fill="#80DEEA"/>
<path d="M28.3125 83.625C26.4375 83.625 24.9375 83.2501 23.4375 82.3126C14.25 77.0626 16.6875 56.625 28.6875 35.625C34.3125 25.8751 41.25 17.6251 48 12.3751C55.3125 6.75005 61.875 5.06255 66.375 7.68755C71.0625 10.3126 72.75 16.875 71.625 26.0625C70.5 34.6875 66.75 44.8126 61.125 54.5625C55.5 64.3125 48.5625 72.5626 41.8125 77.8126C36.9375 81.5626 32.25 83.625 28.3125 83.625ZM61.6875 10.1251C58.6875 10.1251 54.75 11.8126 50.4375 15.1876C44.0625 20.2501 37.5 28.125 32.0625 37.5C20.25 57.9375 19.125 75.5626 25.3125 79.1251C28.5 81.0001 33.75 79.3126 39.5625 74.8126C45.9375 69.7501 52.5 61.875 57.9375 52.5C63.375 43.125 66.9375 33.5626 68.0625 25.5001C69 18.0001 67.875 12.7501 64.6875 10.8751C63.75 10.5001 62.8125 10.1251 61.6875 10.1251Z" fill="#80DEEA"/>
<path d="M61.875 83.625C52.5 83.625 39 72.1875 28.875 54.375C16.6875 33.375 14.25 12.9375 23.4375 7.68751C32.625 2.43751 49.125 14.625 61.3125 35.625C66.9375 45.375 70.6875 55.5 71.8125 64.125C73.125 73.3125 71.25 79.6875 66.5625 82.5C65.0625 83.25 63.5625 83.625 61.875 83.625ZM25.3125 10.875C19.125 14.4375 20.25 32.0625 32.0625 52.5C43.875 72.9375 58.5 82.6875 64.6875 79.125C67.875 77.25 69 72 68.0625 64.5C66.9375 56.4375 63.375 46.875 57.9375 37.5C46.125 17.0625 31.5 7.31251 25.3125 10.875Z" fill="#80DEEA"/>
<path d="M45 52.5C49.1421 52.5 52.5 49.1421 52.5 45C52.5 40.8579 49.1421 37.5 45 37.5C40.8579 37.5 37.5 40.8579 37.5 45C37.5 49.1421 40.8579 52.5 45 52.5Z" fill="#80DEEA"/>
</svg>
