<svg width="90" height="90" viewBox="0 0 90 90" fill="none" xmlns="http://www.w3.org/2000/svg">
<path d="M78.75 11.25H11.25V78.75H78.75V11.25Z" fill="#1976D2"/>
<path d="M51.5438 41.25H26.6757V47.37H35.595V75H42.6619V47.37H51.5438V41.25Z" fill="white"/>
<path d="M73.4887 48.9074C73.4887 48.9074 70.1381 46.6724 66.3506 46.6724C62.5631 46.6724 61.1999 48.4724 61.1999 50.3962C61.1999 55.3612 75.0393 54.8643 75.0393 64.8562C75.0393 80.2481 53.9381 73.4212 53.9381 73.4212V66.0375C53.9381 66.0375 57.9731 69.0787 62.8124 69.0787C67.6518 69.0787 67.4681 65.9137 67.4681 65.4787C67.4681 60.8868 53.7524 60.8868 53.7524 50.7074C53.7524 36.8681 73.7362 42.3281 73.7362 42.3281L73.4887 48.9074Z" fill="white"/>
</svg>
