<svg width="90" height="90" viewBox="0 0 90 90" fill="none" xmlns="http://www.w3.org/2000/svg">
<path d="M45 7.59375C35.0792 7.59375 25.5648 11.5348 18.5498 18.5498C11.5348 25.5648 7.59375 35.0792 7.59375 45C7.59375 54.9208 11.5348 64.4352 18.5498 71.4502C25.5648 78.4652 35.0792 82.4062 45 82.4062C54.9208 82.4062 64.4352 78.4652 71.4502 71.4502C78.4652 64.4352 82.4062 54.9208 82.4062 45C82.4062 35.0792 78.4652 25.5648 71.4502 18.5498C64.4352 11.5348 54.9208 7.59375 45 7.59375Z" fill="white"/>
<path d="M15.0018 45C15.0018 56.88 21.9018 67.1362 31.9106 72L17.5968 32.79C15.9337 36.5231 15.0018 40.6425 15.0018 45ZM65.2575 43.4887C65.2575 39.7819 63.2643 37.2075 62.1262 35.2162C60.6018 32.7244 59.1712 30.6469 59.1712 28.1812C59.1712 25.4344 61.9293 22.8562 64.8731 22.8562C65.0062 22.8562 65.1262 22.8675 65.2593 22.8712C59.9268 17.97 52.815 15 45.0018 15C34.8975 15 25.965 19.9987 20.5293 27.6544C20.9568 27.7931 21.105 27.7275 21.675 27.7275C24.8043 27.7275 29.67 27.3525 29.67 27.3525C31.2825 27.2456 31.4793 29.625 29.8556 29.82C29.8556 29.82 28.2356 30.0169 26.4281 30.105L37.5487 63.4387L44.1112 43.7494L39.2306 30.1594C37.6162 30.0731 36.0825 29.8744 36.0825 29.8744C34.4662 29.7694 34.6537 27.2962 36.2662 27.4069C36.2662 27.4069 41.2312 27.7819 44.1731 27.7819C47.3137 27.7819 52.1681 27.4069 52.1681 27.4069C53.7825 27.3 53.9775 29.6794 52.3631 29.8744C52.3631 29.8744 50.7318 30.0712 48.9281 30.1594L59.9737 63.1781L62.9718 53.1919C64.4981 49.2919 65.2575 46.0669 65.2575 43.4887ZM45.5268 47.6175L36.5268 73.7775C39.2193 74.5762 42.0581 75 45.0018 75C48.4912 75 51.8437 74.3925 54.9693 73.2994C54.8943 73.1662 54.8099 73.0312 54.7481 72.8869L45.5268 47.6175ZM71.3306 30.5963C71.4637 31.5525 71.5331 32.5819 71.5331 33.6806C71.5331 36.7331 70.9593 40.1512 69.2475 44.4375L60.0881 70.9406C69.0093 65.7431 75 56.0662 75 45C75 39.7856 73.6668 34.8825 71.3306 30.5963Z" fill="#01579B"/>
<path d="M7.5 45C7.5 65.67 24.3188 82.5 44.9981 82.5C65.6813 82.5 82.5 65.67 82.5 45C82.5 24.33 65.6812 7.5 45 7.5C24.3188 7.5 7.5 24.33 7.5 45ZM11.2406 45C11.2406 26.3925 26.3794 11.2519 44.9981 11.2519C63.6169 11.2519 78.7594 26.3925 78.7594 45C78.7594 63.6075 63.6169 78.7519 45 78.7519C26.385 78.7519 11.2406 63.6075 11.2406 45Z" fill="#01579B"/>
</svg>
